<?xml version="1.0" standalone="no"?>
<!DOCTYPE svg PUBLIC "-//W3C//DTD SVG 20010904//EN"
 "http://www.w3.org/TR/2001/REC-SVG-20010904/DTD/svg10.dtd">
<svg version="1.0" xmlns="http://www.w3.org/2000/svg"
 width="1558.000000pt" height="1558.000000pt" viewBox="0 0 1558.000000 1558.000000"
 preserveAspectRatio="xMidYMid meet">
<metadata>
Created by potrace 1.14, written by Peter Selinger 2001-2017
</metadata>
<g transform="translate(0.000000,1558.000000) scale(0.100000,-0.100000)"
fill="#000000" stroke="none">
<path d="M0 7790 l0 -7790 7790 0 7790 0 0 7790 0 7790 -7790 0 -7790 0 0
-7790z m5960 5930 c0 -6 -172 -9 -462 -7 l-463 2 455 5 c250 3 458 6 463 8 4
1 7 -2 7 -8z m4742 -462 c-2 -315 -6 -458 -13 -451 -6 6 -9 161 -7 456 l3 447
-384 0 c-340 0 -382 -2 -377 -15 6 -17 -27 -34 -72 -36 l-27 -1 30 -8 c22 -6
25 -8 9 -9 -12 0 -38 6 -58 14 l-36 15 0 -414 0 -415 38 5 c35 4 36 4 12 -8
-24 -12 -22 -13 30 -17 l55 -4 -70 -11 -70 -11 -6 -115 -5 -115 -2 100 c-1 63
-7 106 -14 113 -9 9 -8 12 5 12 16 0 17 34 19 453 1 248 2 459 2 467 0 13 58
15 470 12 l471 -2 -3 -462z m-4882 422 c0 -6 -132 -10 -375 -10 -243 0 -375 4
-375 10 0 6 132 10 375 10 243 0 375 -4 375 -10z m132 -523 c2 -197 0 -348 -4
-335 -3 13 -6 208 -5 433 1 226 2 376 4 335 1 -41 4 -236 5 -433z m-925 461
c-3 -8 -6 -5 -6 6 -1 11 2 17 5 13 3 -3 4 -12 1 -19z m6 -38 c-3 -12 -8 -19
-11 -16 -5 6 5 36 12 36 2 0 2 -9 -1 -20z m885 -45 c-4 -56 -28 -58 -28 -2 0
24 3 47 7 51 13 13 24 -12 21 -49z m2 -94 c0 -4 -7 -8 -15 -8 -16 0 -20 9 -9
20 8 8 24 -1 24 -12z m-886 -6 c-4 -8 -8 -15 -10 -15 -2 0 -4 7 -4 15 0 8 4
15 10 15 5 0 7 -7 4 -15z m880 -50 l-7 -29 -9 24 c-11 29 -2 58 13 43 6 -6 7
-22 3 -38z m-881 -65 c3 -11 1 -23 -4 -26 -5 -3 -9 6 -9 20 0 31 6 34 13 6z
m886 -227 c-1 -290 -2 -276 11 -268 6 3 10 1 10 -4 0 -6 -7 -11 -15 -11 -34 0
-40 50 -37 294 2 196 5 236 17 236 12 0 14 -40 14 -247z m-879 83 c0 -3 -4 -8
-10 -11 -5 -3 -10 -1 -10 4 0 6 5 11 10 11 6 0 10 -2 10 -4z m-7 -126 c3 -11
1 -23 -4 -26 -5 -3 -9 6 -9 20 0 31 6 34 13 6z m7 -144 c0 -3 -4 -8 -10 -11
-5 -3 -10 -1 -10 4 0 6 5 11 10 11 6 0 10 -2 10 -4z m140 -76 c14 0 43 0 65 0
22 0 49 0 60 1 11 0 143 3 293 5 l272 5 0 -26 0 -25 -324 0 c-206 0 -327 4
-331 10 -3 6 -39 10 -80 10 -41 0 -76 4 -79 9 -9 14 15 21 59 15 22 -2 51 -4
65 -4z m973 -47 c-13 -2 -33 -2 -45 0 -13 2 -3 4 22 4 25 0 35 -2 23 -4z m700
0 c-7 -2 -19 -2 -25 0 -7 3 -2 5 12 5 14 0 19 -2 13 -5z m47 -13 c-6 -11 -12
-20 -14 -20 -2 0 -6 9 -9 20 -4 15 0 20 14 20 17 0 18 -3 9 -20z m-899 -43
c-10 -9 -11 -8 -5 6 3 10 9 15 12 12 3 -3 0 -11 -7 -18z m898 -429 c1 -226 1
-425 1 -440 0 -18 10 -38 26 -53 30 -28 24 -45 -17 -45 l-29 0 0 481 c0 289 4
478 9 474 6 -3 10 -178 10 -417z m-922 -186 c-1 -97 -2 -15 -2 183 0 198 1
278 2 177 2 -101 2 -263 0 -360z m4190 -274 l408 -3 -400 -3 c-432 -3 -445 -1
-445 47 1 25 1 25 15 -6 l14 -33 408 -2z m-4149 35 c-10 -2 -26 -2 -35 0 -10
3 -2 5 17 5 19 0 27 -2 18 -5z m-83 -68 l0 -45 -457 1 c-252 1 -458 5 -458 10
0 4 4 19 10 33 8 23 7 26 -13 26 -18 0 -19 2 -7 10 9 6 194 10 470 10 l455 0
0 -45z m1588 38 c-79 -2 -207 -2 -285 0 -79 1 -15 3 142 3 157 0 221 -2 143
-3z m345 0 c-38 -2 -98 -2 -135 0 -38 2 -7 3 67 3 74 0 105 -1 68 -3z m270 0
c-38 -2 -98 -2 -135 0 -38 2 -7 3 67 3 74 0 105 -1 68 -3z m480 0 c-76 -2
-200 -2 -275 0 -76 1 -14 3 137 3 151 0 213 -2 138 -3z m2014 -23 c0 -16 1
-36 2 -42 1 -7 -10 -15 -23 -16 -15 -2 -21 0 -17 7 4 6 0 11 -8 11 -9 0 -16 5
-16 11 0 6 9 9 20 6 15 -4 20 0 20 14 0 10 -6 19 -12 19 -9 0 -8 4 2 10 24 16
30 12 32 -20z m-770 -30 c2 -6 44 -11 95 -13 50 -1 89 -4 87 -7 -6 -6 -274 -9
-274 -3 0 26 84 47 92 23z m296 -22 c-20 -5 -43 -6 -52 -1 -9 5 4 8 37 9 51 1
52 1 15 -8z m134 -1 c-20 -6 -40 -7 -54 0 -17 7 -10 9 33 9 51 1 52 0 21 -9z
m136 1 c-20 -5 -43 -6 -52 -1 -9 5 4 8 37 9 51 1 52 1 15 -8z m141 -4 c10 -9
-55 -3 -69 6 -10 6 -2 7 25 3 22 -3 42 -7 44 -9z m69 -484 c-2 -304 -6 -420
-15 -435 -10 -16 -12 61 -13 383 0 294 3 402 11 402 8 0 10 18 6 58 -5 44 -4
51 4 32 7 -16 9 -172 7 -440z m-4635 -327 c-7 -2 -21 -2 -30 0 -10 3 -4 5 12
5 17 0 24 -2 18 -5z m3725 -10 c-10 -2 -26 -2 -35 0 -10 3 -2 5 17 5 19 0 27
-2 18 -5z m-3715 -20 c-7 -2 -21 -2 -30 0 -10 3 -4 5 12 5 17 0 24 -2 18 -5z
m3742 -3 c-3 -5 -12 -7 -20 -3 -21 7 -19 13 6 13 11 0 18 -4 14 -10z m1885 0
c0 -5 -7 -10 -16 -10 -8 0 -12 5 -9 10 3 6 10 10 16 10 5 0 9 -4 9 -10z m-934
-27 c-10 -10 -19 5 -10 18 6 11 8 11 12 0 2 -7 1 -15 -2 -18z m-6619 -15 c-3
-8 -6 -5 -6 6 -1 11 2 17 5 13 3 -3 4 -12 1 -19z m7553 -414 c0 -239 -3 -433
-7 -431 -5 3 -8 197 -8 431 0 275 -4 427 -10 430 -5 3 -2 5 8 5 16 1 17 -26
17 -435z m-4710 406 c16 0 30 -18 30 -41 0 -5 -7 -9 -15 -9 -8 0 -15 -4 -15
-8 0 -5 -7 -9 -15 -9 -11 0 -15 12 -14 46 0 25 3 40 6 34 2 -7 13 -13 23 -13z
m4625 -8 c-3 -3 -11 0 -18 7 -9 10 -8 11 6 5 10 -3 15 -9 12 -12z m-7441 -866
c19 -27 19 -29 3 -41 -15 -10 -26 -10 -61 0 -25 8 -47 11 -49 8 -9 -8 -490 -6
-509 2 -10 4 -37 4 -60 0 -97 -15 -243 0 -243 25 0 12 19 15 102 17 93 2 102
1 96 -15 -6 -16 -6 -16 11 1 20 20 85 23 105 5 11 -11 12 -10 6 1 -7 12 3 13
55 8 35 -3 67 -11 72 -19 7 -10 8 -9 4 5 -4 14 1 17 32 17 20 0 54 -4 74 -9
22 -5 36 -5 32 0 -7 12 62 12 104 0 20 -6 30 -6 27 0 -8 12 86 12 119 -1 16
-6 27 -6 31 1 4 5 9 7 13 5 4 -2 7 186 6 417 l0 422 5 -410 c6 -384 7 -412 25
-439z m4626 419 c-1 -229 -4 -385 -10 -385 -5 0 -9 156 -10 385 0 257 3 385
10 385 7 0 10 -128 10 -385z m-2820 323 c0 -37 -4 -48 -15 -48 -13 0 -16 10
-14 48 2 33 7 49 16 49 9 0 13 -15 13 -49z m34 -406 c2 -197 0 -342 -5 -342
-5 0 -9 150 -9 347 0 190 2 344 5 342 2 -3 6 -159 9 -347z m-34 -224 c0 -18
-3 -44 -7 -57 -6 -23 -7 -23 -14 -5 -14 36 -10 94 6 94 10 0 15 -10 15 -32z
m1000 -69 c0 -5 -4 -9 -10 -9 -5 0 -10 7 -10 16 0 8 5 12 10 9 6 -3 10 -10 10
-16z m-3813 -81 c-2 -13 -4 -5 -4 17 -1 22 1 32 4 23 2 -10 2 -28 0 -40z
m9473 -1788 l0 -1840 -472 2 -473 3 468 2 467 3 0 1793 c0 1129 -4 1805 -10
1826 -10 34 -6 51 11 51 5 0 9 -697 9 -1840z m-80 -10 c0 -1173 -3 -1770 -10
-1770 -7 0 -10 597 -10 1770 0 1173 3 1770 10 1770 7 0 10 -597 10 -1770z
m-9383 1728 c-3 -8 -6 -5 -6 6 -1 11 2 17 5 13 3 -3 4 -12 1 -19z m903 -1758
c-8 -5 -24 -9 -35 -9 -16 1 -16 2 5 9 35 11 48 11 30 0z m980 0 c0 -5 -2 -10
-4 -10 -3 0 -8 5 -11 10 -3 6 -1 10 4 10 6 0 11 -4 11 -10z m5773 -7 c-7 -2
-19 -2 -25 0 -7 3 -2 5 12 5 14 0 19 -2 13 -5z m635 0 c-103 -2 -274 -2 -380
0 -106 1 -22 2 187 2 209 0 296 -1 193 -2z m-6407 -21 c-7 -2 -18 1 -23 6 -8
8 -4 9 13 5 13 -4 18 -8 10 -11z m909 3 c0 -8 -2 -15 -4 -15 -2 0 -6 7 -10 15
-3 8 -1 15 4 15 6 0 10 -7 10 -15z m-1897 -2 c-7 -2 -21 -2 -30 0 -10 3 -4 5
12 5 17 0 24 -2 18 -5z m5774 -25 c-3 -8 -6 -5 -6 6 -1 11 2 17 5 13 3 -3 4
-12 1 -19z m-4797 -48 c0 -22 -4 -40 -10 -40 -11 0 -14 63 -3 73 11 12 13 8
13 -33z m920 -410 l0 -440 -27 1 c-24 2 -25 2 -5 6 l22 4 0 435 c0 239 2 434
5 434 3 0 5 -198 5 -440z m4807 -212 c-1 -123 -2 -25 -2 217 0 242 1 342 2
223 2 -119 2 -317 0 -440z m-5740 -20 c-1 -112 -2 -23 -2 197 0 220 1 311 2
203 2 -108 2 -288 0 -400z m4830 515 c-3 -10 -5 -2 -5 17 0 19 2 27 5 18 2
-10 2 -26 0 -35z m-4770 -200 c-2 -16 -4 -3 -4 27 0 30 2 43 4 28 2 -16 2 -40
0 -55z m4770 15 c-3 -8 -6 -5 -6 6 -1 11 2 17 5 13 3 -3 4 -12 1 -19z m0 -130
c-3 -8 -6 -5 -6 6 -1 11 2 17 5 13 3 -3 4 -12 1 -19z m-4770 -155 c-2 -16 -4
-3 -4 27 0 30 2 43 4 28 2 -16 2 -40 0 -55z m4770 15 c-3 -8 -6 -5 -6 6 -1 11
2 17 5 13 3 -3 4 -12 1 -19z m-4770 -240 c-3 -7 -5 -2 -5 12 0 14 2 19 5 13 2
-7 2 -19 0 -25z m809 -30 c4 -5 -180 -8 -410 -8 -229 0 -415 3 -412 8 6 10
812 9 822 0z m251 -34 c-3 -3 -12 -4 -19 -1 -8 3 -5 6 6 6 11 1 17 -2 13 -5z
m60 0 c-3 -3 -12 -4 -19 -1 -8 3 -5 6 6 6 11 1 17 -2 13 -5z m136 -1 c-7 -2
-19 -2 -25 0 -7 3 -2 5 12 5 14 0 19 -2 13 -5z m134 1 c-3 -3 -12 -4 -19 -1
-8 3 -5 6 6 6 11 1 17 -2 13 -5z m130 0 c-3 -3 -12 -4 -19 -1 -8 3 -5 6 6 6
11 1 17 -2 13 -5z m140 0 c-3 -3 -12 -4 -19 -1 -8 3 -5 6 6 6 11 1 17 -2 13
-5z m96 -1 c-7 -2 -19 -2 -25 0 -7 3 -2 5 12 5 14 0 19 -2 13 -5z m2065 -4
c-2 -6 -8 -10 -13 -10 -5 0 -11 4 -13 10 -2 6 4 11 13 11 9 0 15 -5 13 -11z
m317 2 c-5 -10 -83 -7 -93 3 -3 3 18 6 47 6 30 0 50 -4 46 -9z m190 -1 c-28
-12 -63 -12 -70 0 -4 6 12 10 42 9 36 0 43 -3 28 -9z m140 0 c-28 -12 -73 -12
-80 0 -4 6 14 10 47 9 39 0 48 -3 33 -9z m131 1 c-6 -9 -74 -7 -84 3 -3 3 16
6 42 6 26 0 45 -4 42 -9z m117 2 c-7 -2 -19 -2 -25 0 -7 3 -2 5 12 5 14 0 19
-2 13 -5z m-2901 -12 c-8 -4 -13 -11 -13 -15 1 -3 1 -15 1 -27 0 -18 -2 -19
-15 -5 -8 8 -15 24 -15 35 0 16 6 21 28 21 18 0 23 -3 14 -9z m2186 2 c-10 -2
-28 -2 -40 0 -13 2 -5 4 17 4 22 1 32 -1 23 -4z m225 0 c-13 -2 -35 -2 -50 0
-16 2 -5 4 22 4 28 0 40 -2 28 -4z m-2426 -680 c-1 -109 -2 -22 -2 192 0 215
1 304 2 198 2 -105 2 -281 0 -390z m-830 485 c-3 -8 -6 -5 -6 6 -1 11 2 17 5
13 3 -3 4 -12 1 -19z m-52 -374 c0 -273 -5 -349 -19 -256 -4 31 -3 185 3 501
0 35 4 61 9 57 4 -4 7 -140 7 -302z m-2838 -231 c-3 -10 -5 -2 -5 17 0 19 2
27 5 18 2 -10 2 -26 0 -35z m-10 -70 c-3 -10 -5 -2 -5 17 0 19 2 27 5 18 2
-10 2 -26 0 -35z m6248 -15 l420 -2 -455 -6 c-250 -3 -459 -3 -465 -1 -14 7
37 20 60 15 11 -2 209 -5 440 -6z m-6407 -1970 l3 -158 159 0 160 0 0 -160 0
-160 165 0 165 0 0 -160 0 -160 155 0 155 0 0 -165 0 -165 170 0 170 0 0 -325
0 -325 -481 -2 -480 -3 0 -155 0 -155 160 -3 161 -2 0 -160 0 -160 165 0 165
0 0 -165 0 -165 -165 0 -165 0 0 160 0 160 -165 0 -165 0 0 -160 0 -160 -160
0 -160 0 0 160 0 160 -315 0 -315 0 0 -160 0 -160 -165 0 -165 0 0 160 0 160
-160 0 -160 0 0 -160 0 -160 -165 0 -165 0 0 165 0 165 160 0 160 0 0 160 0
160 163 2 162 3 0 155 0 155 -505 5 -505 5 -3 323 -2 322 170 0 170 0 0 165 0
165 160 0 160 0 0 160 0 160 160 0 160 0 0 160 0 160 165 0 165 0 0 160 0 160
328 -2 327 -3 3 -157z m4592 -4 l0 -165 -157 3 -158 3 -3 150 c-1 82 0 155 3
162 4 11 39 14 160 12 l155 -1 0 -164z m982 4 l3 -163 162 -3 163 -2 2 -318 3
-317 155 -3 c108 -2 156 -6 162 -15 4 -6 8 -76 8 -154 0 -107 3 -144 13 -145
6 -1 77 -2 157 -3 l145 0 3 -632 2 -633 -147 0 c-82 0 -154 4 -160 8 -10 6
-13 83 -15 307 l-3 300 -155 0 -155 0 -3 -162 -2 -163 -160 0 -160 0 -2 163
-3 162 -662 3 -663 2 0 -165 0 -165 -160 0 -160 0 0 149 c0 82 -3 156 -6 165
-5 14 -29 16 -160 16 l-154 0 0 -319 0 -319 -22 -5 c-18 -3 -254 -2 -300 2 -5
1 -8 289 -8 641 l0 640 73 1 c39 1 115 3 167 5 l95 3 3 155 3 155 157 3 157 3
3 318 2 317 160 0 160 0 0 -160 0 -160 655 0 655 0 0 160 c0 145 -2 160 -17
161 -10 0 -83 1 -163 2 l-145 2 -3 150 c-1 82 0 155 2 162 4 10 43 13 160 13
l156 0 2 -162z m4806 -6 c2 -127 5 -157 19 -170 12 -12 18 -13 21 -4 3 9 42
12 148 12 l144 0 0 -161 0 -160 158 2 157 2 5 -159 5 -159 158 -3 157 -3 0
-159 0 -160 170 0 170 0 0 -485 0 -485 -144 0 c-79 0 -151 3 -160 6 -14 5 -16
29 -16 159 l0 152 -307 5 c-170 3 -316 3 -325 0 -16 -4 -18 -20 -18 -163 l0
-159 -146 0 c-128 0 -148 2 -160 18 -10 12 -13 57 -14 163 l0 146 -315 0
c-310 0 -315 -1 -322 -21 -3 -12 -7 -84 -8 -161 l-1 -140 -157 -3 -156 -3 -3
-157 -3 -157 -157 -3 -158 -3 0 155 0 155 158 3 157 3 0 162 0 162 -340 3
-340 2 -3 -162 -2 -162 -160 0 -160 0 0 480 0 480 93 0 c52 0 128 3 170 6 l77
7 0 158 0 158 157 3 158 3 2 150 c2 83 4 155 5 160 1 6 58 9 151 9 83 -1 155
0 161 2 7 3 10 57 9 162 l-2 157 120 -4 c66 -2 140 0 164 4 l45 6 0 154 c0 92
4 155 10 157 5 2 148 1 317 -2 l308 -5 3 -153z m-4798 -2417 l0 -325 -160 0
-160 0 0 160 0 160 -32 0 c-254 3 -631 -1 -640 -6 -6 -4 -9 -59 -7 -158 l4
-151 -162 -3 -163 -2 0 318 c0 175 3 322 7 325 3 4 300 7 660 7 l653 0 0 -325z
m5453 316 c15 -1 17 -16 17 -156 l0 -155 -137 1 c-76 0 -147 4 -157 8 -18 7
-20 20 -23 151 -2 81 1 146 6 149 8 5 237 7 294 2z m-1274 -476 l2 -155 -160
0 -161 0 0 158 0 157 158 -3 158 -3 3 -154z m961 0 l0 -155 -160 0 -160 0 0
149 c0 110 3 151 13 154 6 3 78 6 160 6 l147 1 0 -155z"/>
<path d="M5408 12803 c7 -3 16 -2 19 1 4 3 -2 6 -13 5 -11 0 -14 -3 -6 -6z"/>
<path d="M5468 12803 c7 -3 16 -2 19 1 4 3 -2 6 -13 5 -11 0 -14 -3 -6 -6z"/>
<path d="M5598 12803 c7 -3 16 -2 19 1 4 3 -2 6 -13 5 -11 0 -14 -3 -6 -6z"/>
<path d="M5678 12803 c7 -3 16 -2 19 1 4 3 -2 6 -13 5 -11 0 -14 -3 -6 -6z"/>
<path d="M5050 11822 c0 -4 10 -16 23 -27 21 -19 39 -20 382 -22 198 -1 372 0
388 3 15 3 27 12 27 20 0 8 5 14 10 14 6 0 10 5 10 10 0 7 -147 10 -420 10
-231 0 -420 -3 -420 -8z"/>
<path d="M3305 9990 c-3 -5 1 -10 9 -10 9 0 16 5 16 10 0 6 -4 10 -9 10 -6 0
-13 -4 -16 -10z"/>
<path d="M3575 9990 c3 -5 10 -10 16 -10 5 0 9 5 9 10 0 6 -7 10 -16 10 -8 0
-12 -4 -9 -10z"/>
<path d="M3710 9990 c0 -5 5 -10 10 -10 6 0 10 5 10 10 0 6 -4 10 -10 10 -5 0
-10 -4 -10 -10z"/>
<path d="M3845 9990 c3 -5 10 -10 16 -10 5 0 9 5 9 10 0 6 -7 10 -16 10 -8 0
-12 -4 -9 -10z"/>
<path d="M3980 9990 c0 -5 5 -10 10 -10 6 0 10 5 10 10 0 6 -4 10 -10 10 -5 0
-10 -4 -10 -10z"/>
<path d="M1980 3310 l0 -160 155 0 155 0 0 160 0 160 -155 0 -155 0 0 -160z"/>
<path d="M2950 3310 l0 -160 150 0 150 0 0 160 0 160 -150 0 -150 0 0 -160z"/>
<path d="M2330 2340 l0 -160 313 2 312 3 0 155 0 155 -312 3 -313 2 0 -160z"/>
<path d="M2000 2020 l0 -160 160 0 160 0 0 160 0 160 -160 0 -160 0 0 -160z"/>
<path d="M2960 2020 l0 -160 160 0 160 0 0 160 0 160 -160 0 -160 0 0 -160z"/>
<path d="M7230 3458 c-4 -112 -5 -277 -2 -289 3 -13 24 -15 150 -13 81 2 153
3 160 3 10 1 12 35 10 154 l-3 152 -157 3 c-123 2 -158 0 -158 -10z"/>
<path d="M8207 3464 c-4 -4 -7 -75 -7 -158 l0 -151 152 2 c84 1 159 2 166 2
10 1 12 35 10 154 l-3 152 -156 3 c-85 1 -158 -1 -162 -4z"/>
<path d="M12668 4103 c7 -3 16 -2 19 1 4 3 -2 6 -13 5 -11 0 -14 -3 -6 -6z"/>
<path d="M12360 3463 c-3 -80 2 -308 6 -312 9 -9 192 -14 259 -6 l65 7 0 164
0 164 -165 0 c-150 0 -165 -2 -165 -17z"/>
<path d="M13330 3316 l0 -164 83 -6 c45 -3 116 -5 157 -3 l75 2 5 163 c3 90 3
166 1 168 -2 2 -76 4 -163 4 l-158 0 0 -164z"/>
</g>
</svg>
