<?xml version="1.0" standalone="no"?>
<!DOCTYPE svg PUBLIC "-//W3C//DTD SVG 20010904//EN"
 "http://www.w3.org/TR/2001/REC-SVG-20010904/DTD/svg10.dtd">
<svg version="1.0" xmlns="http://www.w3.org/2000/svg"
 width="2120.000000pt" height="2120.000000pt" viewBox="0 0 2120.000000 2120.000000"
 preserveAspectRatio="xMidYMid meet">
<metadata>
Created by potrace 1.14, written by Peter Selinger 2001-2017
</metadata>
<g transform="translate(0.000000,2120.000000) scale(0.100000,-0.100000)"
fill="#000000" stroke="none">
<path d="M0 10600 l0 -10600 10600 0 10600 0 0 10600 0 10600 -10600 0 -10600
0 0 -10600z m8440 7074 c0 -10 -4 -12 -12 -7 -7 4 -258 10 -558 13 l-545 5
558 2 c494 2 557 1 557 -13z m5367 9 c-159 -2 -415 -2 -570 0 -155 1 -25 2
288 2 314 0 440 -1 282 -2z m-843 -1113 c-3 -8 -7 -73 -7 -145 l-1 -130 -3
120 c-2 66 -8 124 -13 129 -14 14 -12 26 3 23 9 -1 13 112 17 533 l5 535 3
-525 c1 -289 -1 -532 -4 -540z m1103 288 c-1 -134 -2 -25 -2 242 0 267 1 376
2 243 2 -134 2 -352 0 -485z m-5630 -260 c-2 -13 -4 -5 -4 17 -1 22 1 32 4 23
2 -10 2 -28 0 -40z m5643 -8 c0 -5 -4 -10 -10 -10 -5 0 -10 5 -10 10 0 6 5 10
10 10 6 0 10 -4 10 -10z m-5892 -27 c-119 -2 -317 -2 -440 0 -123 1 -25 2 217
2 242 0 342 -1 223 -2z m1120 0 c-148 -2 -388 -2 -535 0 -148 1 -27 2 267 2
294 0 415 -1 268 -2z m-847 -1084 c7 -4 5 -8 -5 -12 -15 -6 -16 45 -14 541 l3
547 2 -534 c2 -368 7 -537 14 -542z m1106 1049 c-3 -8 -6 -5 -6 6 -1 11 2 17
5 13 3 -3 4 -12 1 -19z m3370 -1060 c-3 -7 -5 -2 -5 12 0 14 2 19 5 13 2 -7 2
-19 0 -25z m-4517 -28 c-9 -6 -226 -9 -575 -7 l-560 2 560 5 c308 3 567 6 575
7 13 2 13 2 0 -7z m2843 3 c-276 -2 -730 -2 -1010 0 -279 1 -53 2 502 2 556 0
784 -1 508 -2z m2787 -9 c0 -8 -5 -12 -10 -9 -6 4 -8 11 -5 16 9 14 15 11 15
-7z m-7797 -1081 c-7 -2 -21 -2 -30 0 -10 3 -4 5 12 5 17 0 24 -2 18 -5z
m8947 -6 c0 -8 -7 -14 -15 -14 -11 0 -12 4 -4 14 6 7 13 13 15 13 2 0 4 -6 4
-13z m-6723 -3 c-3 -3 -12 -4 -19 -1 -8 3 -5 6 6 6 11 1 17 -2 13 -5z m6723
-539 c0 -343 -3 -515 -10 -515 -7 0 -9 169 -8 510 2 333 0 511 -7 514 -5 3 -2
5 8 5 16 1 17 -30 17 -514z m-5640 435 l-8 -35 -1 45 c-1 27 3 40 8 35 6 -6 6
-25 1 -45z m-3354 -948 c-11 -10 -14 3 -7 38 l6 35 3 -33 c2 -19 1 -36 -2 -40z
m3364 -3 c0 -6 -4 -7 -10 -4 -5 3 -10 11 -10 16 0 6 5 7 10 4 6 -3 10 -11 10
-16z m-4533 -81 c-2 -13 -4 -5 -4 17 -1 22 1 32 4 23 2 -10 2 -28 0 -40z
m11260 30 c-3 -8 -6 -5 -6 6 -1 11 2 17 5 13 3 -3 4 -12 1 -19z m20 -525 c-1
-103 -2 -21 -2 182 0 204 1 288 2 188 2 -100 2 -266 0 -370z m0 -2900 c-1
-483 -2 -90 -2 872 0 963 1 1358 2 878 2 -479 2 -1267 0 -1750z m-10194 1180
c-7 -2 -19 -2 -25 0 -7 3 -2 5 12 5 14 0 19 -2 13 -5z m36 -33 c0 -10 -3 -8
-9 5 -12 27 -12 43 0 25 5 -8 9 -22 9 -30z m7951 -525 c0 -311 -3 -565 -7
-565 -5 0 -8 254 -8 565 0 311 3 565 8 565 4 0 7 -254 7 -565z m-1123 518 c-3
-10 -5 -4 -5 12 0 17 2 24 5 18 2 -7 2 -21 0 -30z m-6830 -60 c-3 -10 -5 -2
-5 17 0 19 2 27 5 18 2 -10 2 -26 0 -35z m1106 -994 c-5 -5 -6 229 -3 519 l5
527 3 -519 c1 -286 -1 -523 -5 -527z m1117 516 c0 -494 -1 -525 -17 -524 -11
0 -13 3 -5 6 9 4 12 118 12 524 0 285 2 519 5 519 3 0 5 -236 5 -525z m-2223
318 c-3 -10 -5 -2 -5 17 0 19 2 27 5 18 2 -10 2 -26 0 -35z m3343 -873 c0 -5
-7 -7 -15 -4 -8 4 -15 8 -15 10 0 2 7 4 15 4 8 0 15 -4 15 -10z m2357 -22 c-3
-8 -6 -5 -6 6 -1 11 2 17 5 13 3 -3 4 -12 1 -19z m1120 -100 c-2 -24 -4 -5 -4
42 0 47 2 66 4 43 2 -24 2 -62 0 -85z m-4567 86 c0 -8 -19 -13 -24 -6 -3 5 1
9 9 9 8 0 15 -2 15 -3z m-2253 -956 c-3 -8 -6 -5 -6 6 -1 11 2 17 5 13 3 -3 4
-12 1 -19z m9886 15 c-156 -2 -410 -2 -565 0 -156 1 -29 2 282 2 311 0 438 -1
283 -2z m-11006 -85 c-2 -13 -4 -5 -4 17 -1 22 1 32 4 23 2 -10 2 -28 0 -40z
m6906 -25 c-7 -2 -19 -2 -25 0 -7 3 -2 5 12 5 14 0 19 -2 13 -5z m-7093 -2333
l0 -190 189 0 189 0 5 -37 c2 -21 2 -107 -1 -190 l-4 -153 196 0 196 0 0 -190
0 -190 186 -2 186 -3 -1 -192 -2 -193 205 0 206 0 0 -390 0 -390 -575 0 -575
0 0 -185 0 -185 193 -2 192 -3 3 -192 2 -193 195 0 195 0 0 -195 0 -195 -195
0 -195 0 0 190 0 190 -195 0 -195 0 0 -190 0 -190 -195 0 -195 0 0 190 0 190
-375 0 -375 0 0 -190 0 -190 -195 0 -195 0 0 190 0 190 -190 0 -190 0 0 -190
0 -190 -200 0 -200 0 0 195 0 195 195 0 195 0 0 195 0 195 195 0 195 0 -2 183
-3 182 -602 3 -603 2 0 390 0 390 200 0 200 0 2 193 3 192 188 3 187 2 0 190
0 190 195 0 195 0 0 190 0 190 193 2 192 3 3 188 2 187 390 0 390 0 0 -190z
m5468 -3 l-3 -192 -185 0 -185 0 -3 180 c-1 98 0 185 3 192 4 11 45 13 190 13
l185 -2 -2 -191z m1172 -2 l0 -195 192 -2 192 -3 4 -375 3 -375 189 -3 188 -2
7 -77 c4 -41 5 -121 3 -177 -3 -55 -3 -107 -1 -113 4 -10 51 -13 194 -13 l189
0 0 -750 0 -750 -180 0 c-137 0 -180 3 -180 13 0 8 -4 7 -10 -3 -6 -10 -10
112 -10 353 l0 367 -190 0 -190 0 0 -191 c0 -124 -3 -188 -10 -184 -5 3 -10 2
-10 -4 0 -6 -70 -10 -180 -11 l-180 -1 0 196 0 195 -795 2 -795 3 0 -192 c0
-148 -3 -193 -12 -194 -7 0 -92 -2 -188 -4 l-175 -3 -5 191 -5 192 -187 3
-188 2 0 -380 0 -380 -194 0 -194 0 -2 765 -1 765 201 0 200 0 0 190 0 190
190 0 190 0 0 380 0 380 190 0 190 0 0 -190 0 -190 23 -1 c54 -2 131 -3 815
-1 l722 2 0 190 c0 174 -1 190 -17 191 -10 0 -94 0 -187 -1 -131 -1 -171 1
-177 12 -10 15 -12 362 -2 371 3 4 91 7 195 7 l188 0 0 -195z m5702 168 c16
-14 18 -37 18 -190 0 -143 2 -173 14 -173 8 0 17 -6 20 -12 5 -10 7 -10 12 0
4 9 49 12 175 12 l169 0 1 -190 c1 -104 2 -196 3 -202 2 -19 55 -22 74 -5 13
10 49 15 137 16 66 1 128 4 138 7 12 4 17 0 17 -13 0 -15 2 -16 11 -3 8 11 9
-34 6 -157 -3 -95 -3 -181 0 -192 5 -20 12 -21 189 -21 l184 0 0 -197 0 -198
205 3 c137 2 205 -1 205 -8 0 -5 -17 -10 -37 -11 -35 0 -36 -1 -13 -10 13 -6
26 -12 28 -14 2 -2 5 -142 8 -312 2 -169 6 -417 9 -550 l6 -243 -180 0 -181 0
0 189 c0 105 -3 192 -8 195 -4 2 -6 -81 -4 -186 3 -136 1 -188 -7 -184 -7 5
-11 69 -11 192 0 133 -3 183 -11 178 -6 -3 -15 0 -20 7 -7 12 -9 12 -9 0 0 -7
-6 -11 -14 -8 -20 8 -678 11 -696 3 -13 -5 -15 -34 -13 -181 1 -96 5 -191 9
-211 6 -32 8 -34 17 -18 15 29 17 30 27 14 7 -12 15 -13 40 -3 18 7 83 11 163
10 l132 -2 0 -180 0 -180 -145 -3 c-80 -2 -159 0 -176 3 -39 7 -41 16 -52 210
-5 78 -12 146 -16 153 -5 9 -48 10 -165 7 -148 -5 -159 -4 -176 15 -10 11 -22
17 -26 14 -5 -3 -9 73 -9 168 0 95 -5 180 -10 188 -5 8 -10 11 -10 5 0 -7
-126 -8 -366 -5 -353 5 -367 6 -374 25 -14 41 -22 -41 -20 -226 1 -185 1 -186
-21 -184 -12 1 -28 10 -35 20 -12 16 -14 16 -14 3 0 -29 -120 -35 -233 -12
-15 3 -34 1 -42 -6 -22 -18 -25 12 -23 192 2 103 -1 171 -7 177 -7 7 -156 11
-415 13 l-405 3 3 -179 c3 -140 0 -181 -10 -187 -10 -7 -10 -9 2 -9 13 0 13
-1 0 -10 -9 -5 -19 -5 -26 1 -8 7 -14 6 -19 -1 -4 -6 -65 -10 -166 -10 l-159
0 2 573 3 572 198 0 197 0 0 188 c0 103 0 190 0 195 0 4 84 9 187 12 l188 5 3
170 c2 145 5 173 20 187 15 14 44 17 209 19 174 3 190 4 175 18 -15 14 -17 39
-17 184 0 141 2 167 15 168 10 0 9 3 -5 10 -16 7 -12 8 15 5 19 -3 98 -6 175
-8 77 -1 143 -6 146 -11 3 -4 19 -5 35 -1 l29 8 -30 7 c-19 4 -23 7 -10 8 19
1 20 7 17 177 -2 97 -1 182 1 188 3 8 106 10 368 8 316 -3 366 -5 381 -19z
m-716 -2300 c-11 -11 -17 4 -9 23 7 18 8 18 11 1 2 -10 1 -21 -2 -24z m-4978
-750 l2 -383 -192 0 -193 0 3 183 c2 149 0 186 -11 196 -11 8 -118 11 -403 9
l-389 -3 -3 -192 -2 -193 -190 0 -190 0 0 385 0 385 783 -2 782 -3 3 -382z
m4231 360 c1 19 27 23 34 5 3 -10 9 -9 23 2 15 12 51 17 162 19 l142 3 0 -185
c0 -167 -2 -185 -17 -189 -40 -10 -343 -9 -343 1 0 6 -7 7 -17 4 -11 -4 -14
-3 -9 6 4 6 8 92 8 189 0 106 3 167 8 152 5 -17 8 -19 9 -7z m381 -368 c0 6
66 10 178 10 l177 0 -2 -185 -2 -185 -186 -3 -185 -2 0 192 c0 128 4 188 10
178 5 -8 10 -10 10 -5z m1500 -7 c0 -7 1 -89 3 -183 l2 -170 -172 -2 -173 -1
0 69 c0 96 -19 88 -22 -8 -1 -43 -5 -1 -8 92 -3 108 -1 173 5 177 6 5 5 8 -2
8 -7 0 -13 5 -13 12 0 6 3 9 6 6 3 -3 17 -2 32 2 15 5 98 9 185 9 119 1 157
-2 157 -11z"/>
<path d="M3690 5290 l0 -190 190 0 190 0 0 190 0 190 -190 0 -190 0 0 -190z"/>
<path d="M4850 5290 l0 -190 180 0 180 0 0 190 0 190 -180 0 -180 0 0 -190z"/>
<path d="M4112 4135 c2 -102 6 -185 11 -185 4 0 171 0 372 0 l365 0 0 185 0
185 -375 0 -375 0 2 -185z"/>
<path d="M3722 3753 l3 -188 188 -3 187 -2 0 190 0 190 -190 0 -190 0 2 -187z"/>
<path d="M4870 3750 l0 -190 190 0 190 0 0 190 0 190 -190 0 -190 0 0 -190z"/>
<path d="M9942 5288 l3 -183 192 -3 191 -2 2 185 1 185 -196 0 -195 0 2 -182z"/>
<path d="M11098 5301 c-2 -92 -2 -176 0 -185 3 -15 23 -16 195 -14 l192 3 3
183 2 182 -194 0 -195 0 -3 -169z"/>
<path d="M16608 6583 c56 -2 148 -2 205 0 56 1 10 3 -103 3 -113 0 -159 -2
-102 -3z"/>
<path d="M17090 6586 c0 -2 7 -6 15 -10 8 -3 15 -1 15 4 0 6 -7 10 -15 10 -8
0 -15 -2 -15 -4z"/>
<path d="M16450 6550 c0 -19 3 -21 12 -12 9 9 9 15 0 24 -9 9 -12 7 -12 -12z"/>
<path d="M16452 6405 c0 -16 2 -22 5 -12 2 9 2 23 0 30 -3 6 -5 -1 -5 -18z"/>
<path d="M17584 6065 c0 -88 2 -123 3 -77 2 46 2 118 0 160 -1 42 -3 5 -3 -83z"/>
<path d="M17575 5877 c-4 -10 -5 -21 -1 -24 10 -10 18 4 13 24 -4 17 -4 17
-12 0z"/>
<path d="M15673 5484 c-15 -16 -16 -24 -4 -24 8 0 24 30 19 35 -2 2 -9 -3 -15
-11z"/>
<path d="M16053 5488 c9 -6 9 -8 0 -8 -7 0 -13 -9 -13 -20 0 -11 4 -20 9 -20
4 0 9 -75 10 -167 1 -93 5 -171 9 -175 4 -4 92 -8 195 -10 l188 -3 -2 177 c-1
122 2 182 10 192 9 11 8 15 -4 20 -9 3 -14 9 -12 13 3 5 -86 8 -198 8 -112 0
-198 -3 -192 -7z"/>
<path d="M17226 5492 c-14 -3 -16 -26 -15 -215 1 -117 3 -205 5 -197 4 13 26
15 147 12 78 -1 163 -3 188 -5 l47 -2 -6 188 c-4 151 -2 191 8 197 9 6 3 10
-21 14 -38 7 -327 13 -353 8z"/>
<path d="M15403 5463 c9 -2 23 -2 30 0 6 3 -1 5 -18 5 -16 0 -22 -2 -12 -5z"/>
<path d="M15603 5463 c9 -2 25 -2 35 0 9 3 1 5 -18 5 -19 0 -27 -2 -17 -5z"/>
<path d="M18010 5461 c0 -5 9 -7 20 -4 11 3 20 7 20 9 0 2 -9 4 -20 4 -11 0
-20 -4 -20 -9z"/>
<path d="M18070 5466 c0 -10 28 -13 41 -5 10 6 7 9 -13 9 -16 0 -28 -2 -28 -4z"/>
<path d="M18218 5463 c23 -2 59 -2 80 0 20 2 1 4 -43 4 -44 0 -61 -2 -37 -4z"/>
<path d="M18343 5420 c0 -30 2 -43 4 -27 2 15 2 39 0 55 -2 15 -4 2 -4 -28z"/>
<path d="M18330 5341 c0 -11 5 -23 10 -26 6 -3 10 3 10 14 0 11 -4 23 -10 26
-5 3 -10 -3 -10 -14z"/>
<path d="M18341 5134 c0 -11 3 -14 6 -6 3 7 2 16 -1 19 -3 4 -6 -2 -5 -13z"/>
<path d="M17218 4363 c12 -2 30 -2 40 0 9 3 -1 5 -23 4 -22 0 -30 -2 -17 -4z"/>
<path d="M18388 4353 c7 -3 16 -2 19 1 4 3 -2 6 -13 5 -11 0 -14 -3 -6 -6z"/>
<path d="M16420 4331 c0 -6 5 -13 10 -16 6 -3 10 1 10 9 0 9 -4 16 -10 16 -5
0 -10 -4 -10 -9z"/>
<path d="M15253 4170 c0 -30 2 -43 4 -27 2 15 2 39 0 55 -2 15 -4 2 -4 -28z"/>
</g>
</svg>
